<?xml version="1.0" encoding="UTF-8"?><svg xmlns="http://www.w3.org/2000/svg" xmlns:xlink="http://www.w3.org/1999/xlink" fill-opacity="1" color-rendering="auto" color-interpolation="auto" text-rendering="auto" stroke="black" stroke-linecap="square" width="654" stroke-miterlimit="10" shape-rendering="auto" stroke-opacity="1" fill="black" stroke-dasharray="none" font-weight="normal" stroke-width="1" height="665" font-family="'Dialog'" font-style="normal" stroke-linejoin="miter" font-size="12px" stroke-dashoffset="0" image-rendering="auto">
  <!--Generated by ySVG 2.6-->
  <defs id="genericDefs"/>
  <g>
    <defs id="defs1">
      <linearGradient x1="867.18" gradientUnits="userSpaceOnUse" x2="1098.22" y1="77.8329" y2="188.3778" id="linearGradient1" spreadMethod="reflect">
        <stop stop-opacity="1" stop-color="rgb(232,238,247)" offset="0%"/>
        <stop stop-opacity="1" stop-color="rgb(183,201,227)" offset="100%"/>
      </linearGradient>
      <linearGradient x1="867.18" gradientUnits="userSpaceOnUse" x2="1033.58" y1="-64.2471" y2="11.0978" id="linearGradient2" spreadMethod="reflect">
        <stop stop-opacity="1" stop-color="rgb(232,238,247)" offset="0%"/>
        <stop stop-opacity="1" stop-color="rgb(183,201,227)" offset="100%"/>
      </linearGradient>
      <clipPath clipPathUnits="userSpaceOnUse" id="clipPath1">
        <path d="M0 0 L654 0 L654 665 L0 665 L0 0 Z"/>
      </clipPath>
      <clipPath clipPathUnits="userSpaceOnUse" id="clipPath2">
        <path d="M460 -111 L1114 -111 L1114 554 L460 554 L460 -111 Z"/>
      </clipPath>
    </defs>
    <g fill="white" text-rendering="geometricPrecision" shape-rendering="geometricPrecision" transform="translate(-460,111)" stroke="white">
      <rect x="460" width="654" height="665" y="-111" clip-path="url(#clipPath2)" stroke="none"/>
    </g>
    <g fill="rgb(255,204,0)" text-rendering="geometricPrecision" shape-rendering="geometricPrecision" transform="matrix(1,0,0,1,-460,111)" stroke="rgb(255,204,0)">
      <rect x="683.2304" width="120.496" height="191.28" y="-95.7951" clip-path="url(#clipPath2)" stroke="none"/>
    </g>
    <g text-rendering="geometricPrecision" stroke-miterlimit="1.45" shape-rendering="geometricPrecision" transform="matrix(1,0,0,1,-460,111)" stroke-linecap="butt">
      <rect fill="none" x="683.2304" width="120.496" height="191.28" y="-95.7951" clip-path="url(#clipPath2)"/>
      <text x="732.0585" xml:space="preserve" y="-78.6564" clip-path="url(#clipPath2)" font-family="sans-serif" stroke="none">Sub</text>
    </g>
    <g fill="fuchsia" text-rendering="geometricPrecision" shape-rendering="geometricPrecision" transform="matrix(1,0,0,1,-460,111)" stroke="fuchsia">
      <rect x="691.9344" width="100" height="37.5" y="48.2529" clip-path="url(#clipPath2)" stroke="none"/>
    </g>
    <g text-rendering="geometricPrecision" stroke-miterlimit="1.45" shape-rendering="geometricPrecision" transform="matrix(1,0,0,1,-460,111)" stroke-linecap="butt">
      <rect fill="none" x="691.9344" width="100" height="37.5" y="48.2529" clip-path="url(#clipPath2)"/>
      <text x="733.9363" xml:space="preserve" y="71.1572" clip-path="url(#clipPath2)" font-family="sans-serif" stroke="none">CS</text>
    </g>
    <g fill="red" text-rendering="geometricPrecision" shape-rendering="geometricPrecision" transform="matrix(1,0,0,1,-460,111)" stroke="red">
      <rect x="691.9344" width="100" height="37.5" y="-64.2471" clip-path="url(#clipPath2)" stroke="none"/>
    </g>
    <g text-rendering="geometricPrecision" stroke-miterlimit="1.45" shape-rendering="geometricPrecision" transform="matrix(1,0,0,1,-460,111)" stroke-linecap="butt">
      <rect fill="none" x="691.9344" width="100" height="37.5" y="-64.2471" clip-path="url(#clipPath2)"/>
      <text x="726.659" xml:space="preserve" y="-41.3428" clip-path="url(#clipPath2)" font-family="sans-serif" stroke="none">SCLK</text>
    </g>
    <g fill="rgb(153,204,0)" text-rendering="geometricPrecision" shape-rendering="geometricPrecision" transform="matrix(1,0,0,1,-460,111)" stroke="rgb(153,204,0)">
      <rect x="691.9344" width="100" height="37.5" y="-26.7471" clip-path="url(#clipPath2)" stroke="none"/>
    </g>
    <g text-rendering="geometricPrecision" stroke-miterlimit="1.45" shape-rendering="geometricPrecision" transform="matrix(1,0,0,1,-460,111)" stroke-linecap="butt">
      <rect fill="none" x="691.9344" width="100" height="37.5" y="-26.7471" clip-path="url(#clipPath2)"/>
      <text x="726.4568" xml:space="preserve" y="-3.8428" clip-path="url(#clipPath2)" font-family="sans-serif" stroke="none">MOSI</text>
    </g>
    <g fill="rgb(51,204,204)" text-rendering="geometricPrecision" shape-rendering="geometricPrecision" transform="matrix(1,0,0,1,-460,111)" stroke="rgb(51,204,204)">
      <rect x="691.9344" width="100" height="37.5" y="10.7529" clip-path="url(#clipPath2)" stroke="none"/>
    </g>
    <g text-rendering="geometricPrecision" stroke-miterlimit="1.45" shape-rendering="geometricPrecision" transform="matrix(1,0,0,1,-460,111)" stroke-linecap="butt">
      <rect fill="none" x="691.9344" width="100" height="37.5" y="10.7529" clip-path="url(#clipPath2)"/>
      <text x="726.4568" xml:space="preserve" y="33.6572" clip-path="url(#clipPath2)" font-family="sans-serif" stroke="none">MISO</text>
    </g>
    <g fill="rgb(255,204,0)" text-rendering="geometricPrecision" shape-rendering="geometricPrecision" transform="matrix(1,0,0,1,-460,111)" stroke="rgb(255,204,0)">
      <rect x="683.2304" width="120.496" height="191.28" y="125.4849" clip-path="url(#clipPath2)" stroke="none"/>
    </g>
    <g text-rendering="geometricPrecision" stroke-miterlimit="1.45" shape-rendering="geometricPrecision" transform="matrix(1,0,0,1,-460,111)" stroke-linecap="butt">
      <rect fill="none" x="683.2304" width="120.496" height="191.28" y="125.4849" clip-path="url(#clipPath2)"/>
      <text x="732.0585" xml:space="preserve" y="142.6236" clip-path="url(#clipPath2)" font-family="sans-serif" stroke="none">Sub</text>
    </g>
    <g fill="yellow" text-rendering="geometricPrecision" shape-rendering="geometricPrecision" transform="matrix(1,0,0,1,-460,111)" stroke="yellow">
      <rect x="691.9344" width="100" height="37.5" y="269.5329" clip-path="url(#clipPath2)" stroke="none"/>
    </g>
    <g text-rendering="geometricPrecision" stroke-miterlimit="1.45" shape-rendering="geometricPrecision" transform="matrix(1,0,0,1,-460,111)" stroke-linecap="butt">
      <rect fill="none" x="691.9344" width="100" height="37.5" y="269.5329" clip-path="url(#clipPath2)"/>
      <text x="733.9363" xml:space="preserve" y="292.4372" clip-path="url(#clipPath2)" font-family="sans-serif" stroke="none">CS</text>
    </g>
    <g fill="red" text-rendering="geometricPrecision" shape-rendering="geometricPrecision" transform="matrix(1,0,0,1,-460,111)" stroke="red">
      <rect x="691.9344" width="100" height="37.5" y="157.0329" clip-path="url(#clipPath2)" stroke="none"/>
    </g>
    <g text-rendering="geometricPrecision" stroke-miterlimit="1.45" shape-rendering="geometricPrecision" transform="matrix(1,0,0,1,-460,111)" stroke-linecap="butt">
      <rect fill="none" x="691.9344" width="100" height="37.5" y="157.0329" clip-path="url(#clipPath2)"/>
      <text x="726.659" xml:space="preserve" y="179.9372" clip-path="url(#clipPath2)" font-family="sans-serif" stroke="none">SCLK</text>
    </g>
    <g fill="rgb(153,204,0)" text-rendering="geometricPrecision" shape-rendering="geometricPrecision" transform="matrix(1,0,0,1,-460,111)" stroke="rgb(153,204,0)">
      <rect x="691.9344" width="100" height="37.5" y="194.5329" clip-path="url(#clipPath2)" stroke="none"/>
    </g>
    <g text-rendering="geometricPrecision" stroke-miterlimit="1.45" shape-rendering="geometricPrecision" transform="matrix(1,0,0,1,-460,111)" stroke-linecap="butt">
      <rect fill="none" x="691.9344" width="100" height="37.5" y="194.5329" clip-path="url(#clipPath2)"/>
      <text x="726.4568" xml:space="preserve" y="217.4372" clip-path="url(#clipPath2)" font-family="sans-serif" stroke="none">MOSI</text>
    </g>
    <g fill="rgb(51,204,204)" text-rendering="geometricPrecision" shape-rendering="geometricPrecision" transform="matrix(1,0,0,1,-460,111)" stroke="rgb(51,204,204)">
      <rect x="691.9344" width="100" height="37.5" y="232.0329" clip-path="url(#clipPath2)" stroke="none"/>
    </g>
    <g text-rendering="geometricPrecision" stroke-miterlimit="1.45" shape-rendering="geometricPrecision" transform="matrix(1,0,0,1,-460,111)" stroke-linecap="butt">
      <rect fill="none" x="691.9344" width="100" height="37.5" y="232.0329" clip-path="url(#clipPath2)"/>
      <text x="726.4568" xml:space="preserve" y="254.9372" clip-path="url(#clipPath2)" font-family="sans-serif" stroke="none">MISO</text>
    </g>
    <g fill="rgb(255,204,0)" text-rendering="geometricPrecision" shape-rendering="geometricPrecision" transform="matrix(1,0,0,1,-460,111)" stroke="rgb(255,204,0)">
      <rect x="683.2304" width="120.496" height="191.28" y="346.7649" clip-path="url(#clipPath2)" stroke="none"/>
    </g>
    <g text-rendering="geometricPrecision" stroke-miterlimit="1.45" shape-rendering="geometricPrecision" transform="matrix(1,0,0,1,-460,111)" stroke-linecap="butt">
      <rect fill="none" x="683.2304" width="120.496" height="191.28" y="346.7649" clip-path="url(#clipPath2)"/>
      <text x="732.0585" xml:space="preserve" y="363.9036" clip-path="url(#clipPath2)" font-family="sans-serif" stroke="none">Sub</text>
    </g>
    <g fill="aqua" text-rendering="geometricPrecision" shape-rendering="geometricPrecision" transform="matrix(1,0,0,1,-460,111)" stroke="aqua">
      <rect x="691.9344" width="100" height="37.5" y="490.8129" clip-path="url(#clipPath2)" stroke="none"/>
    </g>
    <g text-rendering="geometricPrecision" stroke-miterlimit="1.45" shape-rendering="geometricPrecision" transform="matrix(1,0,0,1,-460,111)" stroke-linecap="butt">
      <rect fill="none" x="691.9344" width="100" height="37.5" y="490.8129" clip-path="url(#clipPath2)"/>
      <text x="733.9363" xml:space="preserve" y="513.7172" clip-path="url(#clipPath2)" font-family="sans-serif" stroke="none">CS</text>
    </g>
    <g fill="red" text-rendering="geometricPrecision" shape-rendering="geometricPrecision" transform="matrix(1,0,0,1,-460,111)" stroke="red">
      <rect x="691.9344" width="100" height="37.5" y="378.3129" clip-path="url(#clipPath2)" stroke="none"/>
    </g>
    <g text-rendering="geometricPrecision" stroke-miterlimit="1.45" shape-rendering="geometricPrecision" transform="matrix(1,0,0,1,-460,111)" stroke-linecap="butt">
      <rect fill="none" x="691.9344" width="100" height="37.5" y="378.3129" clip-path="url(#clipPath2)"/>
      <text x="726.659" xml:space="preserve" y="401.2172" clip-path="url(#clipPath2)" font-family="sans-serif" stroke="none">SCLK</text>
    </g>
    <g fill="rgb(153,204,0)" text-rendering="geometricPrecision" shape-rendering="geometricPrecision" transform="matrix(1,0,0,1,-460,111)" stroke="rgb(153,204,0)">
      <rect x="691.9344" width="100" height="37.5" y="415.8129" clip-path="url(#clipPath2)" stroke="none"/>
    </g>
    <g text-rendering="geometricPrecision" stroke-miterlimit="1.45" shape-rendering="geometricPrecision" transform="matrix(1,0,0,1,-460,111)" stroke-linecap="butt">
      <rect fill="none" x="691.9344" width="100" height="37.5" y="415.8129" clip-path="url(#clipPath2)"/>
      <text x="726.4568" xml:space="preserve" y="438.7172" clip-path="url(#clipPath2)" font-family="sans-serif" stroke="none">MOSI</text>
    </g>
    <g fill="rgb(51,204,204)" text-rendering="geometricPrecision" shape-rendering="geometricPrecision" transform="matrix(1,0,0,1,-460,111)" stroke="rgb(51,204,204)">
      <rect x="691.9344" width="100" height="37.5" y="453.3129" clip-path="url(#clipPath2)" stroke="none"/>
    </g>
    <g text-rendering="geometricPrecision" stroke-miterlimit="1.45" shape-rendering="geometricPrecision" transform="matrix(1,0,0,1,-460,111)" stroke-linecap="butt">
      <rect fill="none" x="691.9344" width="100" height="37.5" y="453.3129" clip-path="url(#clipPath2)"/>
      <text x="726.4568" xml:space="preserve" y="476.2172" clip-path="url(#clipPath2)" font-family="sans-serif" stroke="none">MISO</text>
    </g>
    <g fill="rgb(255,204,0)" text-rendering="geometricPrecision" shape-rendering="geometricPrecision" transform="matrix(1,0,0,1,-460,111)" stroke="rgb(255,204,0)">
      <rect x="475.6" width="120.496" height="273.2" y="-95.7951" clip-path="url(#clipPath2)" stroke="none"/>
    </g>
    <g text-rendering="geometricPrecision" stroke-miterlimit="1.45" shape-rendering="geometricPrecision" transform="matrix(1,0,0,1,-460,111)" stroke-linecap="butt">
      <rect fill="none" x="475.6" width="120.496" height="273.2" y="-95.7951" clip-path="url(#clipPath2)"/>
      <text x="521.5248" xml:space="preserve" y="-78.6564" clip-path="url(#clipPath2)" font-family="sans-serif" stroke="none">Main</text>
    </g>
    <g fill="fuchsia" text-rendering="geometricPrecision" shape-rendering="geometricPrecision" transform="matrix(1,0,0,1,-460,111)" stroke="fuchsia">
      <rect x="484.304" width="100" height="37.5" y="48.2529" clip-path="url(#clipPath2)" stroke="none"/>
    </g>
    <g text-rendering="geometricPrecision" stroke-miterlimit="1.45" shape-rendering="geometricPrecision" transform="matrix(1,0,0,1,-460,111)" stroke-linecap="butt">
      <rect fill="none" x="484.304" width="100" height="37.5" y="48.2529" clip-path="url(#clipPath2)"/>
      <text x="526.306" xml:space="preserve" y="71.1572" clip-path="url(#clipPath2)" font-family="sans-serif" stroke="none">CS</text>
    </g>
    <g fill="red" text-rendering="geometricPrecision" shape-rendering="geometricPrecision" transform="matrix(1,0,0,1,-460,111)" stroke="red">
      <rect x="484.304" width="100" height="37.5" y="-64.2471" clip-path="url(#clipPath2)" stroke="none"/>
    </g>
    <g text-rendering="geometricPrecision" stroke-miterlimit="1.45" shape-rendering="geometricPrecision" transform="matrix(1,0,0,1,-460,111)" stroke-linecap="butt">
      <rect fill="none" x="484.304" width="100" height="37.5" y="-64.2471" clip-path="url(#clipPath2)"/>
      <text x="519.0286" xml:space="preserve" y="-41.3428" clip-path="url(#clipPath2)" font-family="sans-serif" stroke="none">SCLK</text>
    </g>
    <g fill="rgb(153,204,0)" text-rendering="geometricPrecision" shape-rendering="geometricPrecision" transform="matrix(1,0,0,1,-460,111)" stroke="rgb(153,204,0)">
      <rect x="484.304" width="100" height="37.5" y="-26.7471" clip-path="url(#clipPath2)" stroke="none"/>
    </g>
    <g text-rendering="geometricPrecision" stroke-miterlimit="1.45" shape-rendering="geometricPrecision" transform="matrix(1,0,0,1,-460,111)" stroke-linecap="butt">
      <rect fill="none" x="484.304" width="100" height="37.5" y="-26.7471" clip-path="url(#clipPath2)"/>
      <text x="518.8265" xml:space="preserve" y="-3.8428" clip-path="url(#clipPath2)" font-family="sans-serif" stroke="none">MOSI</text>
    </g>
    <g fill="rgb(51,204,204)" text-rendering="geometricPrecision" shape-rendering="geometricPrecision" transform="matrix(1,0,0,1,-460,111)" stroke="rgb(51,204,204)">
      <rect x="484.304" width="100" height="37.5" y="10.7529" clip-path="url(#clipPath2)" stroke="none"/>
    </g>
    <g text-rendering="geometricPrecision" stroke-miterlimit="1.45" shape-rendering="geometricPrecision" transform="matrix(1,0,0,1,-460,111)" stroke-linecap="butt">
      <rect fill="none" x="484.304" width="100" height="37.5" y="10.7529" clip-path="url(#clipPath2)"/>
      <text x="518.8265" xml:space="preserve" y="33.6572" clip-path="url(#clipPath2)" font-family="sans-serif" stroke="none">MISO</text>
    </g>
    <g fill="yellow" text-rendering="geometricPrecision" shape-rendering="geometricPrecision" transform="matrix(1,0,0,1,-460,111)" stroke="yellow">
      <rect x="484.304" width="100" height="37.5" y="85.7529" clip-path="url(#clipPath2)" stroke="none"/>
    </g>
    <g text-rendering="geometricPrecision" stroke-miterlimit="1.45" shape-rendering="geometricPrecision" transform="matrix(1,0,0,1,-460,111)" stroke-linecap="butt">
      <rect fill="none" x="484.304" width="100" height="37.5" y="85.7529" clip-path="url(#clipPath2)"/>
      <text x="526.306" xml:space="preserve" y="108.6572" clip-path="url(#clipPath2)" font-family="sans-serif" stroke="none">CS</text>
    </g>
    <g fill="aqua" text-rendering="geometricPrecision" shape-rendering="geometricPrecision" transform="matrix(1,0,0,1,-460,111)" stroke="aqua">
      <rect x="484.304" width="100" height="37.5" y="123.2529" clip-path="url(#clipPath2)" stroke="none"/>
    </g>
    <g text-rendering="geometricPrecision" stroke-miterlimit="1.45" shape-rendering="geometricPrecision" transform="matrix(1,0,0,1,-460,111)" stroke-linecap="butt">
      <rect fill="none" x="484.304" width="100" height="37.5" y="123.2529" clip-path="url(#clipPath2)"/>
      <text x="526.306" xml:space="preserve" y="146.1572" clip-path="url(#clipPath2)" font-family="sans-serif" stroke="none">CS</text>
    </g>
    <g fill="url(#linearGradient1)" text-rendering="geometricPrecision" shape-rendering="geometricPrecision" transform="matrix(1,0,0,1,-460,111)" stroke="url(#linearGradient1)">
      <rect x="867.18" width="231.04" height="110.5449" y="77.8329" clip-path="url(#clipPath2)" stroke="none"/>
    </g>
    <g text-rendering="geometricPrecision" stroke-miterlimit="1.45" shape-rendering="geometricPrecision" transform="matrix(1,0,0,1,-460,111)" stroke-linecap="butt">
      <path fill="none" d="M896.06 77.8329 L867.18 77.8329 L867.18 188.3778 L896.06 188.3778" clip-path="url(#clipPath2)"/>
      <text x="881.2977" xml:space="preserve" y="109.3221" clip-path="url(#clipPath2)" font-family="sans-serif" stroke="none">Because SPI has no actual formal</text>
      <text x="881.2977" xml:space="preserve" y="123.2909" clip-path="url(#clipPath2)" font-family="sans-serif" stroke="none">specification, these lines may go</text>
      <text x="881.2977" xml:space="preserve" y="137.2596" clip-path="url(#clipPath2)" font-family="sans-serif" stroke="none">by different names such as SCLK,</text>
      <text x="881.2977" xml:space="preserve" y="151.2284" clip-path="url(#clipPath2)" font-family="sans-serif" stroke="none">CLK; DIN, SOMI; DOUT, SIMO; and</text>
      <text x="881.2977" xml:space="preserve" y="165.1971" clip-path="url(#clipPath2)" font-family="sans-serif" stroke="none">CS, CE.</text>
    </g>
    <g fill="url(#linearGradient2)" text-rendering="geometricPrecision" shape-rendering="geometricPrecision" transform="matrix(1,0,0,1,-460,111)" stroke="url(#linearGradient2)">
      <rect x="867.18" width="166.4" height="75.3449" y="-64.2471" clip-path="url(#clipPath2)" stroke="none"/>
    </g>
    <g text-rendering="geometricPrecision" stroke-miterlimit="1.45" shape-rendering="geometricPrecision" transform="matrix(1,0,0,1,-460,111)" stroke-linecap="butt">
      <path fill="none" d="M887.98 -64.2471 L867.18 -64.2471 L867.18 11.0978 L887.98 11.0978" clip-path="url(#clipPath2)"/>
      <text x="881.1515" xml:space="preserve" y="-43.3735" clip-path="url(#clipPath2)" font-family="sans-serif" stroke="none">SCLK: Serial Clock</text>
      <text x="881.1515" xml:space="preserve" y="-29.4048" clip-path="url(#clipPath2)" font-family="sans-serif" stroke="none">MISO: Main In, Sub Out</text>
      <text x="881.1515" xml:space="preserve" y="-15.436" clip-path="url(#clipPath2)" font-family="sans-serif" stroke="none">MOSI: Main Out, Sub In</text>
      <text x="881.1515" xml:space="preserve" y="-1.4673" clip-path="url(#clipPath2)" font-family="sans-serif" stroke="none">CS: Chip Select</text>
    </g>
    <g text-rendering="geometricPrecision" stroke-miterlimit="1.45" shape-rendering="geometricPrecision" transform="matrix(1,0,0,1,-460,111)" stroke-linecap="butt">
      <path fill="none" d="M584.304 67.0029 L683.9344 67.0029" clip-path="url(#clipPath2)"/>
      <path d="M691.9344 67.0029 L679.9344 62.0029 L682.9344 67.0029 L679.9344 72.0029 Z" clip-path="url(#clipPath2)" stroke="none"/>
      <path fill="none" d="M584.304 -45.4971 L683.9344 -45.4971" clip-path="url(#clipPath2)" stroke="red"/>
      <path fill="red" d="M691.9344 -45.4971 L679.9344 -50.4971 L682.9344 -45.4971 L679.9344 -40.4971 Z" clip-path="url(#clipPath2)" stroke="none"/>
      <path fill="none" d="M584.304 -45.4971 L669.64 -45.4971 L669.64 175.7829 L683.9344 175.7829" clip-path="url(#clipPath2)" stroke="red"/>
      <path fill="red" d="M691.9344 175.7829 L679.9344 170.7829 L682.9344 175.7829 L679.9344 180.7829 Z" clip-path="url(#clipPath2)" stroke="none"/>
      <path fill="none" d="M584.304 -45.4971 L669.64 -45.4971 L669.64 397.0629 L683.9344 397.0629" clip-path="url(#clipPath2)" stroke="red"/>
      <path fill="red" d="M691.9344 397.0629 L679.9344 392.0629 L682.9344 397.0629 L679.9344 402.0629 Z" clip-path="url(#clipPath2)" stroke="none"/>
      <path fill="none" d="M584.304 -7.9971 L683.9344 -7.9971" clip-path="url(#clipPath2)" stroke="rgb(153,204,0)"/>
      <path fill="rgb(153,204,0)" d="M691.9344 -7.9971 L679.9344 -12.9971 L682.9344 -7.9971 L679.9344 -2.9971 Z" clip-path="url(#clipPath2)" stroke="none"/>
      <path fill="none" d="M584.304 -7.9971 L656.84 -7.9971 L656.84 213.2829 L683.9344 213.2829" clip-path="url(#clipPath2)" stroke="rgb(153,204,0)"/>
      <path fill="rgb(153,204,0)" d="M691.9344 213.2829 L679.9344 208.2829 L682.9344 213.2829 L679.9344 218.2829 Z" clip-path="url(#clipPath2)" stroke="none"/>
      <path fill="none" d="M584.304 -7.9971 L656.84 -7.9971 L656.84 434.5629 L683.9344 434.5629" clip-path="url(#clipPath2)" stroke="rgb(153,204,0)"/>
      <path fill="rgb(153,204,0)" d="M691.9344 434.5629 L679.9344 429.5629 L682.9344 434.5629 L679.9344 439.5629 Z" clip-path="url(#clipPath2)" stroke="none"/>
      <path fill="none" d="M584.304 29.5029 L683.9344 29.5029" clip-path="url(#clipPath2)" stroke="rgb(51,204,204)"/>
      <path fill="rgb(51,204,204)" d="M691.9344 29.5029 L679.9344 24.5029 L682.9344 29.5029 L679.9344 34.5029 Z" clip-path="url(#clipPath2)" stroke="none"/>
      <path fill="none" d="M584.304 29.5029 L646.44 29.5029 L646.44 250.7829 L683.9344 250.7829" clip-path="url(#clipPath2)" stroke="rgb(51,204,204)"/>
      <path fill="rgb(51,204,204)" d="M691.9344 250.7829 L679.9344 245.7829 L682.9344 250.7829 L679.9344 255.7829 Z" clip-path="url(#clipPath2)" stroke="none"/>
      <path fill="none" d="M584.304 29.5029 L646.44 29.5029 L646.44 472.0629 L683.9344 472.0629" clip-path="url(#clipPath2)" stroke="rgb(51,204,204)"/>
      <path fill="rgb(51,204,204)" d="M691.9344 472.0629 L679.9344 467.0629 L682.9344 472.0629 L679.9344 477.0629 Z" clip-path="url(#clipPath2)" stroke="none"/>
      <path fill="none" d="M584.304 104.5029 L633.64 104.5029 L633.64 288.2829 L683.9344 288.2829" clip-path="url(#clipPath2)"/>
      <path d="M691.9344 288.2829 L679.9344 283.2829 L682.9344 288.2829 L679.9344 293.2829 Z" clip-path="url(#clipPath2)" stroke="none"/>
      <path fill="none" d="M584.304 142.0029 L620.04 142.0029 L620.04 509.5629 L683.9344 509.5629" clip-path="url(#clipPath2)"/>
      <path d="M691.9344 509.5629 L679.9344 504.5629 L682.9344 509.5629 L679.9344 514.5629 Z" clip-path="url(#clipPath2)" stroke="none"/>
    </g>
  </g>
</svg>
